<svg width="352" height="352" viewBox="0 0 352 352" fill="none" xmlns="http://www.w3.org/2000/svg">
<g clip-path="url(#clip0_45_35)">
<path d="M352 176C352.031 199.825 347.209 223.407 337.826 245.306L337.243 246.65C321.372 282.755 293.852 312.496 259.085 331.116C224.317 349.736 184.31 356.16 145.46 349.36C144.403 349.172 143.348 348.978 142.294 348.777C131.408 346.666 120.748 343.523 110.458 339.388C108.787 338.717 107.127 338.021 105.48 337.3C104.356 336.811 103.231 336.306 102.116 335.785C71.6337 321.657 45.8252 299.109 27.7327 270.8C9.64016 242.49 0.017895 209.597 0 176C0 78.799 78.7991 0 176 0C273.201 0 352 78.799 352 176Z" fill="#93C89C"/>
<path opacity="0.2" d="M145.46 349.36C144.403 349.173 143.348 348.978 142.294 348.777C141.607 328.828 139.248 287.885 131.203 245.005C126.803 221.536 120.695 197.479 112.223 175.974C109.321 168.533 106.006 161.259 102.293 154.187C93.733 138.019 83.35 124.408 70.7593 115.186L72.613 112.656C83.0845 120.331 92.4954 131.106 100.846 144.981C103.351 149.137 105.756 153.57 108.063 158.28C110.536 163.321 112.895 168.672 115.139 174.334C116.571 177.937 117.955 181.665 119.289 185.519C125.101 202.249 130.04 221.338 134.109 242.786C135.01 247.525 135.867 252.38 136.681 257.351C142.987 295.867 144.888 331.479 145.46 349.36Z" fill="black"/>
<path opacity="0.2" d="M105.48 337.3C104.355 336.811 103.231 336.306 102.116 335.785C101.028 323.965 99.0286 309.302 95.3732 295.383C93.7723 289.132 91.7169 283.006 89.2237 277.054C85.0528 267.291 79.653 258.991 72.6703 253.872L74.524 251.347C81.8348 256.7 87.4741 265.161 91.8324 275.06C96.7427 286.213 100.018 299.195 102.2 311.598C103.819 320.809 104.84 329.708 105.48 337.3Z" fill="black"/>
<path opacity="0.2" d="M53.2487 115.114C61.9016 115.114 68.9161 108.099 68.9161 99.4461C68.9161 90.7932 61.9016 83.7787 53.2487 83.7787C44.5958 83.7787 37.5813 90.7932 37.5813 99.4461C37.5813 108.099 44.5958 115.114 53.2487 115.114Z" fill="black"/>
<path opacity="0.2" d="M58.2942 249.982C66.9471 249.982 73.9616 242.968 73.9616 234.315C73.9616 225.662 66.9471 218.647 58.2942 218.647C49.6413 218.647 42.6268 225.662 42.6268 234.315C42.6268 242.968 49.6413 249.982 58.2942 249.982Z" fill="black"/>
<path opacity="0.2" d="M115.449 125.763C112.127 144.507 119.461 161.479 119.461 161.479C119.461 161.479 132.182 148.061 135.504 129.317C138.826 110.573 131.492 93.6006 131.492 93.6006C131.492 93.6006 118.771 107.018 115.449 125.763Z" fill="black"/>
<path opacity="0.2" d="M63.3796 170.257C81.2582 176.795 99.2236 172.599 99.2236 172.599C99.2236 172.599 88.2022 157.805 70.3237 151.267C52.4451 144.729 34.4797 148.925 34.4797 148.925C34.4797 148.925 45.5011 163.72 63.3796 170.257Z" fill="black"/>
<path opacity="0.2" d="M60.3479 289.688C72.8793 294.271 85.4894 291.281 85.4894 291.281C85.4894 291.281 77.7821 280.863 65.2506 276.28C52.7192 271.698 40.1091 274.687 40.1091 274.687C40.1091 274.687 47.8165 285.106 60.3479 289.688Z" fill="black"/>
<path d="M175.639 214.975C213.533 214.975 244.253 184.255 244.253 146.361C244.253 108.466 213.533 77.7465 175.639 77.7465C137.744 77.7465 107.025 108.466 107.025 146.361C107.025 184.255 137.744 214.975 175.639 214.975Z" fill="#D0CDE1"/>
<path d="M148.836 198.893C148.836 198.893 157.413 239.633 157.413 243.921C157.413 248.21 198.153 267.507 198.153 267.507L234.604 261.075L247.469 222.479C247.469 222.479 226.027 190.316 226.027 177.451L148.836 198.893Z" fill="#D0CDE1"/>
<path d="M337.826 245.307L337.243 246.65C321.372 282.756 293.852 312.496 259.085 331.116C224.317 349.736 184.31 356.16 145.46 349.36C144.403 349.173 143.348 348.978 142.294 348.777C131.408 346.666 120.748 343.523 110.458 339.388C108.787 338.717 107.127 338.021 105.48 337.3C104.356 336.811 103.231 336.306 102.116 335.785C92.0162 331.106 82.3832 325.478 73.3472 318.977L65.2137 295.383L69.7856 291.894L79.1896 284.714L89.2237 277.054L91.8324 275.06L131.203 245.005L134.109 242.786L154.573 227.165L154.578 227.16C154.578 227.16 176.708 263.219 208.872 252.498C241.037 241.776 240.334 211.033 240.334 211.033L337.826 245.307Z" fill="#2F2E41"/>
<path d="M116.137 91.0805C116.137 91.0805 137.921 43.8803 179.675 54.7727C221.429 65.665 245.03 82.0035 246.845 98.3421C248.66 114.681 245.937 139.188 245.937 139.188C245.937 139.188 241.399 105.604 212.353 112.865C183.306 120.127 137.921 114.681 137.921 114.681L130.66 180.035C130.66 180.035 122.491 168.235 113.414 175.496C104.337 182.758 87.0905 105.604 116.137 91.0805Z" fill="#2F2E41"/>
<path d="M110.458 339.388C108.787 338.717 107.127 338.021 105.48 337.3C104.356 336.811 103.231 336.306 102.116 335.785C85.4116 328.039 70.0223 317.725 56.5074 305.219C61.2928 298.7 65.2137 295.383 65.2137 295.383H97.378L102.2 311.598L110.458 339.388Z" fill="#2F2E41"/>
<path d="M309.651 241.776L337.243 246.65C329.859 263.472 319.886 279.033 307.688 292.769L309.651 241.776Z" fill="#2F2E41"/>
</g>
<defs>
<clipPath id="clip0_45_35">
<rect width="352" height="352" fill="white"/>
</clipPath>
</defs>
</svg>
