<svg width="337" height="195" viewBox="0 0 337 195" fill="none" xmlns="http://www.w3.org/2000/svg">
<g clip-path="url(#clip0_27_3)">
<path d="M73.0186 173.093C82.6979 173.093 90.5445 165.191 90.5445 155.443C90.5445 145.695 82.6979 137.793 73.0186 137.793C63.3393 137.793 55.4927 145.695 55.4927 155.443C55.4927 165.191 63.3393 173.093 73.0186 173.093Z" fill="#F2F2F2"/>
<path d="M75.8683 170.51C85.5476 170.51 93.3942 162.608 93.3942 152.86C93.3942 143.112 85.5476 135.21 75.8683 135.21C66.189 135.21 58.3424 143.112 58.3424 152.86C58.3424 162.608 66.189 170.51 75.8683 170.51Z" fill="#93C89C"/>
<path d="M306.825 133.331H89.9828V133.927H306.825V133.331Z" fill="#3F3D56"/>
<path d="M202.286 5.55681H125.32V3.95928H90.4208V5.55681H13.1378C12.4541 5.55681 11.7771 5.69242 11.1455 5.9559C10.5139 6.21938 9.93993 6.60557 9.4565 7.09242C8.97306 7.57927 8.58958 8.15725 8.32794 8.79334C8.06631 9.42944 7.93165 10.1112 7.93165 10.7997V116.934C7.93165 118.324 8.48015 119.658 9.4565 120.641C10.4328 121.624 11.757 122.176 13.1378 122.176H202.286C203.667 122.176 204.991 121.624 205.967 120.641C206.943 119.658 207.492 118.324 207.492 116.934V10.7997C207.492 10.1112 207.357 9.42944 207.096 8.79334C206.834 8.15725 206.451 7.57927 205.967 7.09242C205.484 6.60557 204.91 6.21938 204.278 5.9559C203.647 5.69242 202.97 5.55681 202.286 5.55681Z" fill="#3F3D56"/>
<path d="M200.512 14.8225H14.9115V120.259H200.512V14.8225Z" fill="#93C89C"/>
<path d="M107.553 11.9469C108.605 11.9469 109.457 11.0886 109.457 10.0299C109.457 8.97115 108.605 8.11286 107.553 8.11286C106.502 8.11286 105.65 8.97115 105.65 10.0299C105.65 11.0886 106.502 11.9469 107.553 11.9469Z" fill="#6C63FF"/>
<path opacity="0.1" d="M147.434 120.26H14.9116V14.8226L147.434 120.26Z" fill="black"/>
<path d="M43.9524 112.37C53.8055 112.37 61.793 104.326 61.793 94.4031C61.793 84.4805 53.8055 76.4366 43.9524 76.4366C34.0994 76.4366 26.1119 84.4805 26.1119 94.4031C26.1119 104.326 34.0994 112.37 43.9524 112.37Z" fill="#F2F2F2"/>
<path d="M168.196 71.6855H150.859V75.3337H168.196V71.6855Z" fill="#3F3D56"/>
<path d="M189.156 43.2812H129.899V44.8447H189.156V43.2812Z" fill="#3F3D56"/>
<path d="M189.156 48.2324H129.899V49.7959H189.156V48.2324Z" fill="#3F3D56"/>
<path d="M189.156 53.1836H129.899V54.7471H189.156V53.1836Z" fill="#3F3D56"/>
<path d="M189.156 58.1348H129.899V59.6983H189.156V58.1348Z" fill="#3F3D56"/>
<path d="M189.156 63.086H129.899V64.6496H189.156V63.086Z" fill="#3F3D56"/>
<path d="M189.156 16.9616H181.91V24.2581H189.156V16.9616Z" fill="#F2F2F2"/>
<path d="M192.52 27.6458H183.722V18.7857H192.52V27.6458ZM184.104 27.2606H192.137V19.1709H184.104V27.2606Z" fill="#3F3D56"/>
<path d="M212.703 118.342H194.59V117.028C194.59 116.994 194.583 116.96 194.57 116.928C194.557 116.897 194.538 116.868 194.514 116.844C194.49 116.82 194.462 116.8 194.43 116.787C194.399 116.774 194.365 116.768 194.331 116.768H188.121C188.087 116.768 188.053 116.774 188.022 116.787C187.99 116.8 187.962 116.82 187.938 116.844C187.914 116.868 187.895 116.897 187.882 116.928C187.869 116.96 187.862 116.994 187.862 117.028V118.342H183.981V117.028C183.981 116.994 183.974 116.96 183.961 116.928C183.948 116.897 183.929 116.868 183.905 116.844C183.881 116.82 183.852 116.8 183.821 116.787C183.789 116.774 183.756 116.768 183.722 116.768H177.512C177.478 116.768 177.444 116.774 177.412 116.787C177.381 116.8 177.353 116.82 177.329 116.844C177.305 116.868 177.285 116.897 177.272 116.928C177.259 116.96 177.253 116.994 177.253 117.028V118.342H173.371V117.028C173.371 116.994 173.365 116.96 173.352 116.928C173.339 116.897 173.32 116.868 173.296 116.844C173.271 116.82 173.243 116.8 173.212 116.787C173.18 116.774 173.147 116.768 173.113 116.768H166.902C166.868 116.768 166.835 116.774 166.803 116.787C166.772 116.8 166.743 116.82 166.719 116.844C166.695 116.868 166.676 116.897 166.663 116.928C166.65 116.96 166.643 116.994 166.643 117.028V118.342H162.762V117.028C162.762 116.994 162.755 116.96 162.742 116.928C162.729 116.897 162.71 116.868 162.686 116.844C162.662 116.82 162.634 116.8 162.602 116.787C162.571 116.774 162.537 116.768 162.503 116.768H156.293C156.259 116.768 156.225 116.774 156.194 116.787C156.163 116.8 156.134 116.82 156.11 116.844C156.086 116.868 156.067 116.897 156.054 116.928C156.041 116.96 156.034 116.994 156.034 117.028V118.342H152.153V117.028C152.153 116.994 152.146 116.96 152.133 116.928C152.12 116.897 152.101 116.868 152.077 116.844C152.053 116.82 152.024 116.8 151.993 116.787C151.962 116.774 151.928 116.768 151.894 116.768H145.684C145.65 116.768 145.616 116.774 145.585 116.787C145.553 116.8 145.525 116.82 145.501 116.844C145.477 116.868 145.458 116.897 145.445 116.928C145.432 116.96 145.425 116.994 145.425 117.028V118.342H141.543V117.028C141.543 116.994 141.537 116.96 141.524 116.928C141.511 116.897 141.492 116.868 141.468 116.844C141.444 116.82 141.415 116.8 141.384 116.787C141.352 116.774 141.319 116.768 141.285 116.768H135.074C135.04 116.768 135.007 116.774 134.975 116.787C134.944 116.8 134.915 116.82 134.891 116.844C134.867 116.868 134.848 116.897 134.835 116.928C134.822 116.96 134.816 116.994 134.816 117.028V118.342H130.934V117.028C130.934 116.994 130.927 116.96 130.914 116.928C130.901 116.897 130.882 116.868 130.858 116.844C130.834 116.82 130.806 116.8 130.774 116.787C130.743 116.774 130.709 116.768 130.675 116.768H82.0279C81.9939 116.768 81.9603 116.774 81.9289 116.787C81.8975 116.8 81.869 116.82 81.8449 116.844C81.8209 116.868 81.8018 116.897 81.7888 116.928C81.7758 116.96 81.7691 116.994 81.7691 117.028V118.342H77.8877V117.028C77.8877 116.994 77.881 116.96 77.868 116.928C77.855 116.897 77.8359 116.868 77.8119 116.844C77.7879 116.82 77.7594 116.8 77.728 116.787C77.6966 116.774 77.6629 116.768 77.6289 116.768H71.4186C71.3846 116.768 71.351 116.774 71.3196 116.787C71.2882 116.8 71.2597 116.82 71.2356 116.844C71.2116 116.868 71.1926 116.897 71.1796 116.928C71.1665 116.96 71.1599 116.994 71.1599 117.028V118.342H67.2784V117.028C67.2784 116.994 67.2717 116.96 67.2587 116.928C67.2457 116.897 67.2267 116.868 67.2026 116.844C67.1786 116.82 67.1501 116.8 67.1187 116.787C67.0873 116.774 67.0536 116.768 67.0196 116.768H60.8093C60.7754 116.768 60.7417 116.774 60.7103 116.787C60.6789 116.8 60.6504 116.82 60.6264 116.844C60.6023 116.868 60.5833 116.897 60.5703 116.928C60.5573 116.96 60.5506 116.994 60.5506 117.028V118.342H56.6691V117.028C56.6691 116.994 56.6624 116.96 56.6494 116.928C56.6364 116.897 56.6174 116.868 56.5933 116.844C56.5693 116.82 56.5408 116.8 56.5094 116.787C56.478 116.774 56.4443 116.768 56.4104 116.768H50.2C50.1661 116.768 50.1324 116.774 50.101 116.787C50.0696 116.8 50.0411 116.82 50.0171 116.844C49.993 116.868 49.974 116.897 49.961 116.928C49.948 116.96 49.9413 116.994 49.9413 117.028V118.342H46.0598V117.028C46.0598 116.994 46.0532 116.96 46.0402 116.928C46.0271 116.897 46.0081 116.868 45.9841 116.844C45.96 116.82 45.9315 116.8 45.9001 116.787C45.8687 116.774 45.8351 116.768 45.8011 116.768H39.5908C39.5568 116.768 39.5231 116.774 39.4917 116.787C39.4603 116.8 39.4318 116.82 39.4078 116.844C39.3838 116.868 39.3647 116.897 39.3517 116.928C39.3387 116.96 39.332 116.994 39.332 117.028V118.342H35.4506V117.028C35.4506 116.994 35.4439 116.96 35.4309 116.928C35.4179 116.897 35.3988 116.868 35.3748 116.844C35.3507 116.82 35.3222 116.8 35.2908 116.787C35.2594 116.774 35.2258 116.768 35.1918 116.768H28.9815C28.9475 116.768 28.9138 116.774 28.8824 116.787C28.8511 116.8 28.8225 116.82 28.7985 116.844C28.7745 116.868 28.7554 116.897 28.7424 116.928C28.7294 116.96 28.7227 116.994 28.7227 117.028V118.342H24.8413V117.028C24.8413 116.994 24.8346 116.96 24.8216 116.928C24.8086 116.897 24.7895 116.868 24.7655 116.844C24.7414 116.82 24.7129 116.8 24.6815 116.787C24.6501 116.774 24.6165 116.768 24.5825 116.768H18.3722C18.3382 116.768 18.3046 116.774 18.2732 116.787C18.2418 116.8 18.2132 116.82 18.1892 116.844C18.1652 116.868 18.1461 116.897 18.1331 116.928C18.1201 116.96 18.1134 116.994 18.1134 117.028V118.342H6.21032C4.56324 118.342 2.98362 119.001 1.81896 120.174C0.654301 121.347 1.56917e-06 122.938 0 124.597V127.425C4.70752e-06 129.083 0.654306 130.674 1.81897 131.847C2.98363 133.02 4.56324 133.679 6.21032 133.679H212.703C214.35 133.679 215.93 133.02 217.095 131.847C218.259 130.674 218.914 129.083 218.914 127.425V124.597C218.914 122.938 218.259 121.347 217.095 120.174C215.93 119.001 214.35 118.342 212.703 118.342Z" fill="#3F3D56"/>
<path d="M48.2709 105.625C43.8241 105.625 39.4773 104.297 35.78 101.809C32.0826 99.321 29.2009 95.7848 27.4993 91.6476C25.7976 87.5103 25.3523 82.9578 26.2198 78.5658C27.0874 74.1737 29.2287 70.1393 32.373 66.9728C35.5173 63.8063 39.5234 61.6499 43.8846 60.7763C48.2459 59.9026 52.7665 60.351 56.8747 62.0647C60.983 63.7784 64.4943 66.6805 66.9648 70.4039C69.4353 74.1273 70.7539 78.5048 70.7539 82.983C70.7471 88.9858 68.3762 94.7409 64.1613 98.9856C59.9464 103.23 54.2317 105.618 48.2709 105.625ZM48.2709 60.9371C43.9412 60.9371 39.7087 62.23 36.1087 64.6525C32.5087 67.0749 29.7028 70.518 28.0459 74.5464C26.389 78.5747 25.9554 83.0074 26.8001 87.2839C27.6448 91.5604 29.7298 95.4886 32.7913 98.5718C35.8529 101.655 39.7536 103.755 44.0001 104.605C48.2466 105.456 52.6482 105.019 56.6483 103.351C60.6484 101.682 64.0674 98.8564 66.4729 95.231C68.8783 91.6056 70.1622 87.3432 70.1622 82.983C70.1557 77.138 67.8471 71.5344 63.7431 67.4014C59.6391 63.2685 54.0748 60.9437 48.2709 60.9371Z" fill="#3F3D56"/>
<path d="M248.843 9.69521H173.407V10.291H248.843V9.69521Z" fill="#3F3D56"/>
<path d="M337 166.996H120.157V167.592H337V166.996Z" fill="#3F3D56"/>
<path d="M132.434 194.404H56.9979V195H132.434V194.404Z" fill="#3F3D56"/>
<path d="M147.619 163.855H139.336V172.196H147.619V163.855Z" fill="#93C89C"/>
<path d="M152.648 167.43H142.59V157.301H152.648V167.43ZM143.027 166.989H152.211V157.741H143.027V166.989Z" fill="#3F3D56"/>
<path d="M243.763 6.55419H235.48V14.8959H243.763V6.55419Z" fill="#93C89C"/>
<path d="M248.792 10.1292H238.734V0H248.792V10.1292ZM239.171 9.6888H248.355V0.440401H239.171V9.6888Z" fill="#3F3D56"/>
<path d="M327.187 163.855H318.904V172.196H327.187V163.855Z" fill="#93C89C"/>
<path d="M332.216 167.43H322.158V157.301H332.216V167.43ZM322.595 166.989H331.779V157.741H322.595V166.989Z" fill="#3F3D56"/>
<path d="M312.742 69.1045H312.038V49.6917C312.038 48.2162 311.75 46.7551 311.189 45.392C310.629 44.0288 309.807 42.7902 308.771 41.7469C307.735 40.7036 306.505 39.876 305.151 39.3113C303.798 38.7467 302.347 38.4561 300.882 38.4561H260.041C258.576 38.4561 257.125 38.7467 255.772 39.3113C254.418 39.876 253.188 40.7036 252.152 41.7469C251.116 42.7902 250.294 44.0288 249.734 45.392C249.173 46.7551 248.885 48.2162 248.885 49.6917V156.192C248.885 157.667 249.173 159.128 249.734 160.491C250.294 161.855 251.116 163.093 252.152 164.136C253.188 165.18 254.418 166.007 255.772 166.572C257.125 167.137 258.576 167.427 260.041 167.427H300.882C302.347 167.427 303.798 167.137 305.151 166.572C306.505 166.007 307.735 165.18 308.771 164.136C309.807 163.093 310.629 161.855 311.189 160.491C311.75 159.128 312.038 157.667 312.038 156.192V82.9228H312.742V69.1045Z" fill="#3F3D56"/>
<path d="M309.663 50.352V156.697C309.663 158.922 308.785 161.057 307.223 162.63C305.661 164.204 303.542 165.089 301.332 165.089H260.295C258.085 165.089 255.966 164.204 254.403 162.63C252.841 161.057 251.964 158.922 251.964 156.697V50.352C251.964 48.1271 252.842 45.9934 254.404 44.4201C255.967 42.8469 258.085 41.9629 260.295 41.9627H265.273C265.028 42.5679 264.935 43.2246 265.001 43.8748C265.068 44.525 265.292 45.1488 265.654 45.6912C266.016 46.2336 266.505 46.6781 267.078 46.9853C267.651 47.2926 268.29 47.4533 268.939 47.4533H292.336C292.985 47.4533 293.624 47.2926 294.197 46.9854C294.77 46.6781 295.259 46.2336 295.621 45.6912C295.983 45.1488 296.207 44.525 296.273 43.8748C296.34 43.2246 296.246 42.5679 296.001 41.9627H301.332C303.541 41.9629 305.66 42.8469 307.222 44.4201C308.785 45.9934 309.662 48.1271 309.663 50.352Z" fill="#93C89C"/>
<path d="M286.926 112.082H274.701V115.73H286.926V112.082Z" fill="#3F3D56"/>
<path d="M301.705 83.6776H259.922V85.2411H301.705V83.6776Z" fill="#3F3D56"/>
<path d="M301.705 88.6288H259.922V90.1924H301.705V88.6288Z" fill="#3F3D56"/>
<path d="M301.705 93.58H259.922V95.1436H301.705V93.58Z" fill="#3F3D56"/>
<path d="M301.705 98.5312H259.922V100.095H301.705V98.5312Z" fill="#3F3D56"/>
<path d="M301.705 103.482H259.922V105.046H301.705V103.482Z" fill="#3F3D56"/>
<path d="M282.273 62.9139H275.028V70.2104H282.273V62.9139Z" fill="#F2F2F2"/>
<path d="M277.801 64.7385V73.5986H286.599V64.7385H277.801ZM286.217 73.2142H278.183V65.1228H286.217V73.2142Z" fill="#3F3D56"/>
<path opacity="0.1" d="M309.663 145.34V156.697C309.663 158.922 308.785 161.057 307.223 162.63C305.661 164.204 303.542 165.089 301.332 165.089H260.295C258.085 165.089 255.966 164.204 254.403 162.63C252.841 161.057 251.964 158.922 251.964 156.697V99.4339L286.538 126.941L287.129 127.411L293.561 132.527L294.161 133.006L309.663 145.34Z" fill="black"/>
<path d="M277.263 161.643C284.431 161.643 290.241 155.791 290.241 148.574C290.241 141.356 284.431 135.505 277.263 135.505C270.096 135.505 264.286 141.356 264.286 148.574C264.286 155.791 270.096 161.643 277.263 161.643Z" fill="#F2F2F2"/>
<path d="M94.716 195C89.6257 195 84.6497 193.48 80.4173 190.632C76.1848 187.784 72.886 183.736 70.938 179C68.99 174.264 68.4804 169.052 69.4734 164.025C70.4665 158.997 72.9177 154.379 76.5171 150.754C80.1165 147.129 84.7025 144.66 89.695 143.66C94.6875 142.66 99.8624 143.174 104.565 145.135C109.268 147.097 113.288 150.419 116.116 154.681C118.944 158.944 120.453 163.955 120.453 169.081C120.445 175.953 117.731 182.541 112.906 187.4C108.081 192.259 101.54 194.992 94.716 195ZM94.716 143.758C89.7427 143.758 84.8811 145.243 80.746 148.026C76.6108 150.808 73.3878 154.763 71.4846 159.39C69.5814 164.018 69.0835 169.109 70.0537 174.021C71.024 178.934 73.4188 183.446 76.9355 186.987C80.4522 190.529 84.9327 192.941 89.8104 193.918C94.6882 194.895 99.7441 194.393 104.339 192.477C108.934 190.56 112.861 187.314 115.624 183.15C118.387 178.986 119.862 174.09 119.862 169.081C119.854 162.367 117.202 155.931 112.488 151.183C107.774 146.436 101.383 143.766 94.716 143.758Z" fill="#3F3D56"/>
<path d="M281.088 158.654C277.87 158.654 274.725 157.693 272.049 155.893C269.373 154.092 267.288 151.533 266.056 148.539C264.825 145.545 264.503 142.25 265.13 139.072C265.758 135.893 267.308 132.974 269.583 130.682C271.859 128.391 274.758 126.83 277.914 126.198C281.07 125.566 284.342 125.89 287.315 127.13C290.288 128.371 292.829 130.471 294.617 133.165C296.405 135.86 297.359 139.028 297.359 142.269C297.354 146.613 295.638 150.778 292.588 153.849C289.538 156.921 285.402 158.649 281.088 158.654ZM281.088 126.479C277.987 126.479 274.956 127.405 272.378 129.14C269.799 130.875 267.79 133.341 266.603 136.226C265.416 139.111 265.106 142.286 265.711 145.349C266.316 148.412 267.809 151.225 270.002 153.434C272.194 155.642 274.988 157.146 278.03 157.755C281.071 158.364 284.224 158.051 287.089 156.856C289.953 155.661 292.402 153.637 294.125 151.041C295.848 148.444 296.767 145.391 296.767 142.269C296.763 138.082 295.109 134.069 292.17 131.109C289.231 128.149 285.245 126.484 281.088 126.479Z" fill="#3F3D56"/>
</g>
<defs>
<clipPath id="clip0_27_3">
<rect width="337" height="195" fill="white"/>
</clipPath>
</defs>
</svg>
