<svg width="450" height="265" viewBox="0 0 450 265" fill="none" xmlns="http://www.w3.org/2000/svg">
<g clip-path="url(#clip0_27_377)">
<path d="M146.645 263.984H0V265H146.645V263.984Z" fill="#3F3D56"/>
<path d="M445.927 218.465H81.162C80.0822 218.463 79.0469 218.033 78.2833 217.268C77.5197 216.504 77.0902 215.467 77.089 214.385V4.07921C77.0902 2.9977 77.5197 1.96082 78.2833 1.19608C79.0469 0.431333 80.0822 0.00118052 81.162 0H445.927C447.007 0.00118052 448.042 0.431333 448.806 1.19608C449.569 1.96082 449.999 2.9977 450 4.07921V214.385C449.999 215.467 449.569 216.504 448.806 217.268C448.042 218.033 447.007 218.463 445.927 218.465ZM81.162 0.906492C80.3222 0.907473 79.517 1.24206 78.9231 1.83684C78.3292 2.43163 77.9951 3.23806 77.9941 4.07921V214.385C77.9951 215.227 78.3292 216.033 78.9231 216.628C79.517 217.222 80.3222 217.557 81.162 217.558H445.927C446.767 217.557 447.572 217.222 448.166 216.628C448.76 216.033 449.094 215.226 449.095 214.385V4.07921C449.094 3.23807 448.76 2.43167 448.166 1.83689C447.572 1.24211 446.767 0.90751 445.927 0.906492H81.162Z" fill="#3F3D56"/>
<path d="M225.586 158.749H110.352C109.332 158.748 108.355 158.342 107.633 157.62C106.912 156.897 106.507 155.918 106.505 154.897V83.7372C106.507 82.7158 106.912 81.7365 107.633 81.0143C108.355 80.292 109.332 79.8858 110.352 79.8846H225.586C226.605 79.8858 227.583 80.292 228.304 81.0143C229.026 81.7365 229.431 82.7158 229.432 83.7372V154.897C229.431 155.918 229.026 156.897 228.304 157.62C227.583 158.342 226.605 158.748 225.586 158.749Z" fill="#E6E6E6"/>
<path d="M69.7408 173.643C69.2491 173.644 68.765 173.521 68.3327 173.286C67.9005 173.051 67.5339 172.712 67.2665 172.299L63.637 166.683C63.2141 166.026 63.0683 165.229 63.2317 164.465C63.395 163.701 63.8541 163.033 64.5083 162.608L111.244 132.312C111.899 131.888 112.696 131.742 113.458 131.906C114.221 132.07 114.887 132.53 115.312 133.185L118.941 138.801C119.151 139.126 119.295 139.489 119.365 139.869C119.435 140.25 119.429 140.64 119.348 141.019C119.268 141.397 119.113 141.755 118.894 142.074C118.674 142.392 118.395 142.665 118.07 142.875L71.3345 173.171C70.8601 173.479 70.3064 173.643 69.7408 173.643Z" fill="#93C89C"/>
<path d="M71.1974 172.796L90.7342 161.87C91.3436 161.53 91.7985 160.967 92.0046 160.299C92.2108 159.632 92.1523 158.91 91.8413 158.284L87.3154 149.177C87.1366 148.818 86.8804 148.502 86.5653 148.253C86.2501 148.005 85.8839 147.829 85.4929 147.739C85.1018 147.649 84.6957 147.647 84.3038 147.733C83.9118 147.818 83.5437 147.99 83.226 148.236L64.6141 162.613C64.0107 163.006 63.5871 163.622 63.4361 164.326C63.2852 165.031 63.4192 165.767 63.8087 166.373L67.439 171.99C67.8311 172.595 68.4471 173.02 69.1517 173.171C69.8564 173.323 70.5921 173.188 71.1974 172.796Z" fill="#CCCCCC"/>
<path d="M90.6049 12.3464C92.3545 12.3464 93.7729 10.9259 93.7729 9.17364C93.7729 7.42139 92.3545 6.00092 90.6049 6.00092C88.8553 6.00092 87.437 7.42139 87.437 9.17364C87.437 10.9259 88.8553 12.3464 90.6049 12.3464Z" fill="#93C89C"/>
<path d="M99.6562 12.3464C101.406 12.3464 102.824 10.9259 102.824 9.17364C102.824 7.42139 101.406 6.00092 99.6562 6.00092C97.9066 6.00092 96.4882 7.42139 96.4882 9.17364C96.4882 10.9259 97.9066 12.3464 99.6562 12.3464Z" fill="#93C89C"/>
<path d="M108.707 12.3464C110.457 12.3464 111.875 10.9259 111.875 9.17364C111.875 7.42139 110.457 6.00092 108.707 6.00092C106.958 6.00092 105.539 7.42139 105.539 9.17364C105.539 10.9259 106.958 12.3464 108.707 12.3464Z" fill="#93C89C"/>
<path d="M449.547 16.7701H77.5416V19.0363H449.547V16.7701Z" fill="#3F3D56"/>
<path d="M118.668 74.8989C117.768 74.8998 116.906 75.2583 116.269 75.8956C115.633 76.5329 115.275 77.3969 115.274 78.2982V149.458C115.275 150.359 115.633 151.223 116.269 151.86C116.906 152.498 117.768 152.856 118.668 152.857H233.902C234.802 152.856 235.664 152.498 236.301 151.86C236.937 151.223 237.295 150.359 237.296 149.458V78.2982C237.295 77.3969 236.937 76.5329 236.301 75.8956C235.664 75.2583 234.802 74.8998 233.902 74.8989H118.668Z" fill="#3F3D56"/>
<path d="M283.683 75.5788C283.023 75.5788 282.39 75.8414 281.923 76.3089C281.457 76.7764 281.194 77.4105 281.194 78.0716C281.194 78.7327 281.457 79.3668 281.923 79.8343C282.39 80.3018 283.023 80.5645 283.683 80.5645H418.094C418.755 80.5645 419.388 80.3018 419.854 79.8343C420.321 79.3668 420.583 78.7327 420.583 78.0716C420.583 77.4105 420.321 76.7764 419.854 76.3089C419.388 75.8414 418.755 75.5788 418.094 75.5788H283.683Z" fill="#93C89C"/>
<path d="M283.683 91.4424C283.023 91.4424 282.39 91.705 281.923 92.1725C281.457 92.64 281.194 93.2741 281.194 93.9352C281.194 94.5964 281.457 95.2304 281.923 95.6979C282.39 96.1654 283.023 96.4281 283.683 96.4281H418.094C418.755 96.4281 419.388 96.1654 419.854 95.6979C420.321 95.2304 420.583 94.5964 420.583 93.9352C420.583 93.2741 420.321 92.64 419.854 92.1725C419.388 91.705 418.755 91.4424 418.094 91.4424H283.683Z" fill="#93C89C"/>
<path d="M283.683 107.306C283.023 107.306 282.39 107.569 281.923 108.036C281.457 108.504 281.194 109.138 281.194 109.799C281.194 110.46 281.457 111.094 281.923 111.562C282.39 112.029 283.023 112.292 283.683 112.292H418.094C418.755 112.292 419.388 112.029 419.854 111.562C420.321 111.094 420.583 110.46 420.583 109.799C420.583 109.138 420.321 108.504 419.854 108.036C419.388 107.569 418.755 107.306 418.094 107.306H283.683Z" fill="#93C89C"/>
<path d="M283.683 123.17C283.023 123.17 282.39 123.432 281.923 123.9C281.457 124.367 281.194 125.001 281.194 125.662C281.194 126.324 281.457 126.958 281.923 127.425C282.39 127.893 283.023 128.155 283.683 128.155H418.094C418.755 128.155 419.388 127.893 419.854 127.425C420.321 126.958 420.583 126.324 420.583 125.662C420.583 125.001 420.321 124.367 419.854 123.9C419.388 123.432 418.755 123.17 418.094 123.17H283.683Z" fill="#E6E6E6"/>
<path d="M283.683 139.033C283.023 139.033 282.39 139.296 281.923 139.763C281.457 140.231 281.194 140.865 281.194 141.526C281.194 142.187 281.457 142.821 281.923 143.289C282.39 143.756 283.023 144.019 283.683 144.019H418.094C418.755 144.019 419.388 143.756 419.854 143.289C420.321 142.821 420.583 142.187 420.583 141.526C420.583 140.865 420.321 140.231 419.854 139.763C419.388 139.296 418.755 139.033 418.094 139.033H283.683Z" fill="#E6E6E6"/>
<path d="M283.683 154.897C283.023 154.897 282.39 155.159 281.923 155.627C281.457 156.094 281.194 156.729 281.194 157.39C281.194 158.051 281.457 158.685 281.923 159.152C282.39 159.62 283.023 159.883 283.683 159.883H418.094C418.755 159.883 419.388 159.62 419.854 159.152C420.321 158.685 420.583 158.051 420.583 157.39C420.583 156.729 420.321 156.094 419.854 155.627C419.388 155.159 418.755 154.897 418.094 154.897H283.683Z" fill="#E6E6E6"/>
<path d="M69.2967 137.693C82.6735 137.693 93.5174 126.833 93.5174 113.436C93.5174 100.039 82.6735 89.1785 69.2967 89.1785C55.92 89.1785 45.076 100.039 45.076 113.436C45.076 126.833 55.92 137.693 69.2967 137.693Z" fill="#93C89C"/>
<path d="M65.4804 264.523H58.8007C58.0208 264.523 57.2731 264.212 56.7216 263.66C56.1701 263.107 55.8599 262.358 55.859 261.577V205.821C55.8599 205.04 56.1701 204.292 56.7216 203.739C57.2731 203.187 58.0208 202.876 58.8007 202.875H65.4804C66.2603 202.876 67.0079 203.187 67.5594 203.739C68.1109 204.292 68.4211 205.04 68.422 205.821V261.577C68.4211 262.358 68.1109 263.107 67.5594 263.66C67.0079 264.212 66.2603 264.523 65.4804 264.523Z" fill="#2F2E41"/>
<path d="M78.6917 264.523H72.012C71.2321 264.523 70.4844 264.212 69.933 263.66C69.3815 263.107 69.0713 262.358 69.0704 261.577V205.821C69.0713 205.04 69.3815 204.292 69.933 203.739C70.4844 203.187 71.2321 202.876 72.012 202.875H78.6917C79.4716 202.876 80.2193 203.187 80.7708 203.739C81.3223 204.292 81.6325 205.04 81.6334 205.821V261.577C81.6325 262.358 81.3223 263.107 80.7708 263.66C80.2193 264.212 79.4716 264.523 78.6917 264.523Z" fill="#2F2E41"/>
<path d="M84.1966 212.15H53.8466C53.0667 212.149 52.319 211.838 51.7676 211.286C51.2161 210.733 50.9059 209.985 50.905 209.204V157.942C50.9099 153.631 52.6221 149.498 55.6659 146.449C58.7098 143.401 62.8368 141.686 67.1415 141.681H84.1966C84.9765 141.682 85.7241 141.993 86.2756 142.545C86.8271 143.097 87.1373 143.846 87.1382 144.627V209.204C87.1373 209.985 86.8271 210.733 86.2756 211.286C85.7241 211.838 84.9765 212.149 84.1966 212.15Z" fill="#CCCCCC"/>
<path d="M90.4383 120.175L90.4131 119.269C92.0969 119.222 93.5815 119.116 94.6969 118.3C95.0132 118.055 95.2731 117.745 95.4591 117.391C95.6451 117.037 95.7527 116.647 95.7746 116.247C95.7942 116.003 95.7574 115.758 95.6669 115.53C95.5764 115.303 95.4347 115.099 95.2529 114.935C94.5126 114.309 93.3211 114.511 92.4525 114.911L91.7036 115.255L93.1397 104.744L94.0364 104.867L92.8149 113.808C93.9951 113.46 95.0883 113.609 95.8372 114.243C96.1247 114.495 96.3503 114.809 96.4964 115.162C96.6424 115.516 96.705 115.898 96.6791 116.279C96.6527 116.816 96.5093 117.341 96.2592 117.816C96.009 118.292 95.658 118.707 95.2308 119.032C93.7976 120.081 91.9349 120.133 90.4383 120.175Z" fill="#2F2E41"/>
<path d="M87.9589 105.638H83.0841V106.544H87.9589V105.638Z" fill="#2F2E41"/>
<path d="M97.3208 208.15C96.786 208.15 96.2613 208.004 95.8029 207.728C95.3446 207.452 94.9697 207.056 94.7184 206.583L68.6214 157.333C68.2567 156.643 68.1803 155.836 68.409 155.089C68.6377 154.342 69.1527 153.717 69.8412 153.35L75.7413 150.214C76.4307 149.849 77.2365 149.772 77.9821 150.001C78.7277 150.23 79.3523 150.746 79.7189 151.435L105.816 200.685C106.18 201.376 106.257 202.183 106.028 202.93C105.8 203.676 105.285 204.302 104.596 204.669L98.6958 207.805C98.2726 208.031 97.8005 208.15 97.3208 208.15Z" fill="#93C89C"/>
<path d="M66.7436 157.229L78.1856 177.666C78.4718 178.304 78.9922 178.806 79.6386 179.07C80.285 179.333 81.0079 179.337 81.6572 179.081L91.1077 175.352C91.481 175.205 91.817 174.977 92.0917 174.684C92.3664 174.391 92.5729 174.041 92.6962 173.658C92.8196 173.276 92.8568 172.871 92.8052 172.472C92.7536 172.074 92.6145 171.692 92.3978 171.354L79.7049 150.634C79.3666 149.998 78.7904 149.522 78.1025 149.31C77.4146 149.099 76.6711 149.169 76.0346 149.505L67.8704 153.548C67.2341 153.887 66.7581 154.465 66.5469 155.155C66.3356 155.845 66.4064 156.591 66.7436 157.229Z" fill="#CCCCCC"/>
<path d="M83.674 95.6998C86.5954 95.4279 89.0412 93.4904 90.3382 90.8977C91.0005 89.5557 91.3481 88.0799 91.3543 86.583C91.3606 85.086 91.0254 83.6074 90.3744 82.2599C88.9977 79.4344 86.7008 77.1631 83.8624 75.8205C80.5609 74.2189 76.8324 73.7755 73.2008 73.9224C66.3574 74.1991 58.8178 76.1233 54.611 81.9674C52.6321 84.6176 51.7721 87.9405 52.2164 91.2197C52.7487 94.6612 54.8402 97.6417 57.0732 100.211C59.4136 102.903 62.1143 105.328 63.964 108.413C65.5645 111.082 66.4255 114.443 65.3549 117.472C65.0996 118.189 64.7207 118.857 64.2352 119.444C63.6816 120.113 64.637 121.08 65.1952 120.405C67.1213 118.078 67.5107 115.005 66.9042 112.109C66.2364 108.92 64.3102 106.224 62.2039 103.816C58.1055 99.1298 52.0018 94.013 53.7244 87.0124C54.5333 83.9782 56.3738 81.3216 58.9287 79.5008C61.6682 77.5116 64.9208 76.4172 68.2259 75.8228C74.5505 74.6855 82.2097 74.8044 86.9882 79.7397C88.9742 81.7909 90.3401 84.657 89.9743 87.5657C89.6444 90.1887 87.9721 92.7614 85.5273 93.8554C84.9399 94.1168 84.314 94.2805 83.674 94.3401C82.8114 94.4204 82.803 95.7809 83.674 95.6999L83.674 95.6998Z" fill="#2F2E41"/>
</g>
<defs>
<clipPath id="clip0_27_377">
<rect width="450" height="265" fill="white"/>
</clipPath>
</defs>
</svg>
